<svg width="571" height="602" viewBox="0 0 571 602" fill="none" xmlns="http://www.w3.org/2000/svg">
<g filter="url(#filter0_d_20_102)">
<path d="M20 132.204L286.663 6L551 133.076L537.485 440.671L284.628 592L34.2414 439.655L20 132.204Z" stroke="white" stroke-width="2" shape-rendering="crispEdges"/>
</g>
<path opacity="0.5" d="M26 136.189L286.636 13L545 137.04L531.791 437.286L284.648 585L39.9195 436.294L26 136.189Z" stroke="white"/>
<path d="M276 28.1688L286.5 23L297 28.1688L286 47L276 28.1688Z" fill="white"/>
<path d="M277 568.499L284.5 573.168L292 568.499L284.5 552.999L277 568.499Z" fill="white"/>
<path d="M525.892 137.5L535.702 142.36L535 154.061L515.271 154.061L525.892 137.5Z" fill="white"/>
<path d="M520.519 421L520.523 431.527L511.998 436L502.174 419.683L520.519 421Z" fill="white"/>
<path d="M51.4182 421L51.4149 431.527L59.9395 436L69.7634 419.683L51.4182 421Z" fill="white"/>
<path d="M45.9911 137.5L36.1809 142.36L36.8828 154.061L56.6121 154.061L45.9911 137.5Z" fill="white"/>
<path d="M275 28.1688L285.5 23L296 28.1688L285 47L275 28.1688Z" fill="white"/>
<path d="M276 568.499L283.5 573.168L291 568.499L283.5 552.999L276 568.499Z" fill="white"/>
<path d="M524.892 137.5L534.702 142.36L534 154.061L514.271 154.061L524.892 137.5Z" fill="white"/>
<path d="M519.521 421L519.525 431.527L511 436L501.176 419.683L519.521 421Z" fill="white"/>
<path d="M50.4162 421L50.413 431.527L58.9375 436L68.7614 419.683L50.4162 421Z" fill="white"/>
<path d="M44.9911 137.5L35.1809 142.36L35.8828 154.061L55.6121 154.061L44.9911 137.5Z" fill="white"/>
<g filter="url(#filter1_d_20_102)">
<path d="M33.2129 439L33.2129 472.941" stroke="white" stroke-width="2"/>
<circle r="3" transform="matrix(0.707107 -0.707107 -0.707107 -0.707107 33.5664 476.122)" stroke="white" stroke-width="2"/>
</g>
<g filter="url(#filter2_d_20_102)">
<path d="M99.2109 480.002L99.2109 497.154" stroke="white" stroke-width="2"/>
<circle r="3" transform="matrix(0.707107 -0.707107 -0.707107 -0.707107 99.5664 500.335)" stroke="white" stroke-width="2"/>
</g>
<g filter="url(#filter3_d_20_102)">
<path d="M463.816 484.002L463.816 501.154" stroke="white" stroke-width="2"/>
<circle r="3" transform="matrix(0.707107 -0.707107 -0.707107 -0.707107 464.172 504.335)" stroke="white" stroke-width="2"/>
</g>
<g filter="url(#filter4_d_20_102)">
<path d="M198.816 540.002L198.816 557.154" stroke="white" stroke-width="2"/>
<circle r="3" transform="matrix(0.707107 -0.707107 -0.707107 -0.707107 199.172 560.335)" stroke="white" stroke-width="2"/>
</g>
<g filter="url(#filter5_d_20_102)">
<path d="M313.816 573.002L313.816 590.154" stroke="white" stroke-width="2"/>
<circle r="3" transform="matrix(0.707107 -0.707107 -0.707107 -0.707107 314.172 593.335)" stroke="white" stroke-width="2"/>
</g>
<g filter="url(#filter6_d_20_102)">
<path d="M29.1266 349.68L16.998 361.809" stroke="white" stroke-width="2"/>
<circle r="3" transform="matrix(1 0 0 -1 15 364.311)" stroke="white" stroke-width="2"/>
</g>
<g filter="url(#filter7_d_20_102)">
<path d="M22.6305 208.127L10.502 195.998" stroke="white" stroke-width="2"/>
<circle r="3" transform="matrix(-4.37114e-08 1 1 4.37114e-08 8 194)" stroke="white" stroke-width="2"/>
</g>
<g filter="url(#filter8_d_20_102)">
<path d="M63.6305 111.127L51.502 98.998" stroke="white" stroke-width="2"/>
<circle r="3" transform="matrix(-4.37114e-08 1 1 4.37114e-08 49 97)" stroke="white" stroke-width="2"/>
</g>
<g filter="url(#filter9_d_20_102)">
<path d="M543.998 279L556.127 291.129" stroke="white" stroke-width="2"/>
<circle r="3" transform="matrix(-4.37114e-08 -1 -1 4.37114e-08 558.629 293.127)" stroke="white" stroke-width="2"/>
</g>
<g filter="url(#filter10_d_20_102)">
<path d="M548.002 176.63L560.131 164.502" stroke="white" stroke-width="2"/>
<circle r="3" transform="matrix(-1 8.74228e-08 8.74228e-08 1 562.129 162)" stroke="white" stroke-width="2"/>
</g>
<g filter="url(#filter11_d_20_102)">
<path d="M365.002 44.6305L377.131 32.502" stroke="white" stroke-width="2"/>
<circle r="3" transform="matrix(-1 8.74228e-08 8.74228e-08 1 379.129 30)" stroke="white" stroke-width="2"/>
</g>
<g filter="url(#filter12_d_20_102)">
<path d="M536.215 441.092V475.033" stroke="white" stroke-width="2"/>
<circle r="3" transform="matrix(0.707107 -0.707107 -0.707107 -0.707107 536.568 478.214)" stroke="white" stroke-width="2"/>
</g>
<defs>
<filter id="filter0_d_20_102" x="14.9703" y="0.89209" width="541.058" height="596.276" filterUnits="userSpaceOnUse" color-interpolation-filters="sRGB">
<feFlood flood-opacity="0" result="BackgroundImageFix"/>
<feColorMatrix in="SourceAlpha" type="matrix" values="0 0 0 0 0 0 0 0 0 0 0 0 0 0 0 0 0 0 127 0" result="hardAlpha"/>
<feOffset/>
<feGaussianBlur stdDeviation="2"/>
<feComposite in2="hardAlpha" operator="out"/>
<feColorMatrix type="matrix" values="0 0 0 0 1 0 0 0 0 1 0 0 0 0 1 0 0 0 1 0"/>
<feBlend mode="normal" in2="BackgroundImageFix" result="effect1_dropShadow_20_102"/>
<feBlend mode="normal" in="SourceGraphic" in2="effect1_dropShadow_20_102" result="shape"/>
</filter>
<filter id="filter1_d_20_102" x="25.5664" y="435" width="16" height="49.1222" filterUnits="userSpaceOnUse" color-interpolation-filters="sRGB">
<feFlood flood-opacity="0" result="BackgroundImageFix"/>
<feColorMatrix in="SourceAlpha" type="matrix" values="0 0 0 0 0 0 0 0 0 0 0 0 0 0 0 0 0 0 127 0" result="hardAlpha"/>
<feOffset/>
<feGaussianBlur stdDeviation="2"/>
<feComposite in2="hardAlpha" operator="out"/>
<feColorMatrix type="matrix" values="0 0 0 0 1 0 0 0 0 1 0 0 0 0 1 0 0 0 1 0"/>
<feBlend mode="normal" in2="BackgroundImageFix" result="effect1_dropShadow_20_102"/>
<feBlend mode="normal" in="SourceGraphic" in2="effect1_dropShadow_20_102" result="shape"/>
</filter>
<filter id="filter2_d_20_102" x="91.5664" y="476.002" width="16" height="32.3334" filterUnits="userSpaceOnUse" color-interpolation-filters="sRGB">
<feFlood flood-opacity="0" result="BackgroundImageFix"/>
<feColorMatrix in="SourceAlpha" type="matrix" values="0 0 0 0 0 0 0 0 0 0 0 0 0 0 0 0 0 0 127 0" result="hardAlpha"/>
<feOffset/>
<feGaussianBlur stdDeviation="2"/>
<feComposite in2="hardAlpha" operator="out"/>
<feColorMatrix type="matrix" values="0 0 0 0 1 0 0 0 0 1 0 0 0 0 1 0 0 0 1 0"/>
<feBlend mode="normal" in2="BackgroundImageFix" result="effect1_dropShadow_20_102"/>
<feBlend mode="normal" in="SourceGraphic" in2="effect1_dropShadow_20_102" result="shape"/>
</filter>
<filter id="filter3_d_20_102" x="456.172" y="480.002" width="16" height="32.3334" filterUnits="userSpaceOnUse" color-interpolation-filters="sRGB">
<feFlood flood-opacity="0" result="BackgroundImageFix"/>
<feColorMatrix in="SourceAlpha" type="matrix" values="0 0 0 0 0 0 0 0 0 0 0 0 0 0 0 0 0 0 127 0" result="hardAlpha"/>
<feOffset/>
<feGaussianBlur stdDeviation="2"/>
<feComposite in2="hardAlpha" operator="out"/>
<feColorMatrix type="matrix" values="0 0 0 0 1 0 0 0 0 1 0 0 0 0 1 0 0 0 1 0"/>
<feBlend mode="normal" in2="BackgroundImageFix" result="effect1_dropShadow_20_102"/>
<feBlend mode="normal" in="SourceGraphic" in2="effect1_dropShadow_20_102" result="shape"/>
</filter>
<filter id="filter4_d_20_102" x="191.172" y="536.002" width="16" height="32.3334" filterUnits="userSpaceOnUse" color-interpolation-filters="sRGB">
<feFlood flood-opacity="0" result="BackgroundImageFix"/>
<feColorMatrix in="SourceAlpha" type="matrix" values="0 0 0 0 0 0 0 0 0 0 0 0 0 0 0 0 0 0 127 0" result="hardAlpha"/>
<feOffset/>
<feGaussianBlur stdDeviation="2"/>
<feComposite in2="hardAlpha" operator="out"/>
<feColorMatrix type="matrix" values="0 0 0 0 1 0 0 0 0 1 0 0 0 0 1 0 0 0 1 0"/>
<feBlend mode="normal" in2="BackgroundImageFix" result="effect1_dropShadow_20_102"/>
<feBlend mode="normal" in="SourceGraphic" in2="effect1_dropShadow_20_102" result="shape"/>
</filter>
<filter id="filter5_d_20_102" x="306.172" y="569.002" width="16" height="32.3334" filterUnits="userSpaceOnUse" color-interpolation-filters="sRGB">
<feFlood flood-opacity="0" result="BackgroundImageFix"/>
<feColorMatrix in="SourceAlpha" type="matrix" values="0 0 0 0 0 0 0 0 0 0 0 0 0 0 0 0 0 0 127 0" result="hardAlpha"/>
<feOffset/>
<feGaussianBlur stdDeviation="2"/>
<feComposite in2="hardAlpha" operator="out"/>
<feColorMatrix type="matrix" values="0 0 0 0 1 0 0 0 0 1 0 0 0 0 1 0 0 0 1 0"/>
<feBlend mode="normal" in2="BackgroundImageFix" result="effect1_dropShadow_20_102"/>
<feBlend mode="normal" in="SourceGraphic" in2="effect1_dropShadow_20_102" result="shape"/>
</filter>
<filter id="filter6_d_20_102" x="7" y="344.973" width="26.8337" height="27.3376" filterUnits="userSpaceOnUse" color-interpolation-filters="sRGB">
<feFlood flood-opacity="0" result="BackgroundImageFix"/>
<feColorMatrix in="SourceAlpha" type="matrix" values="0 0 0 0 0 0 0 0 0 0 0 0 0 0 0 0 0 0 127 0" result="hardAlpha"/>
<feOffset/>
<feGaussianBlur stdDeviation="2"/>
<feComposite in2="hardAlpha" operator="out"/>
<feColorMatrix type="matrix" values="0 0 0 0 1 0 0 0 0 1 0 0 0 0 1 0 0 0 1 0"/>
<feBlend mode="normal" in2="BackgroundImageFix" result="effect1_dropShadow_20_102"/>
<feBlend mode="normal" in="SourceGraphic" in2="effect1_dropShadow_20_102" result="shape"/>
</filter>
<filter id="filter7_d_20_102" x="0" y="186" width="27.3376" height="26.8337" filterUnits="userSpaceOnUse" color-interpolation-filters="sRGB">
<feFlood flood-opacity="0" result="BackgroundImageFix"/>
<feColorMatrix in="SourceAlpha" type="matrix" values="0 0 0 0 0 0 0 0 0 0 0 0 0 0 0 0 0 0 127 0" result="hardAlpha"/>
<feOffset/>
<feGaussianBlur stdDeviation="2"/>
<feComposite in2="hardAlpha" operator="out"/>
<feColorMatrix type="matrix" values="0 0 0 0 1 0 0 0 0 1 0 0 0 0 1 0 0 0 1 0"/>
<feBlend mode="normal" in2="BackgroundImageFix" result="effect1_dropShadow_20_102"/>
<feBlend mode="normal" in="SourceGraphic" in2="effect1_dropShadow_20_102" result="shape"/>
</filter>
<filter id="filter8_d_20_102" x="41" y="89" width="27.3376" height="26.8337" filterUnits="userSpaceOnUse" color-interpolation-filters="sRGB">
<feFlood flood-opacity="0" result="BackgroundImageFix"/>
<feColorMatrix in="SourceAlpha" type="matrix" values="0 0 0 0 0 0 0 0 0 0 0 0 0 0 0 0 0 0 127 0" result="hardAlpha"/>
<feOffset/>
<feGaussianBlur stdDeviation="2"/>
<feComposite in2="hardAlpha" operator="out"/>
<feColorMatrix type="matrix" values="0 0 0 0 1 0 0 0 0 1 0 0 0 0 1 0 0 0 1 0"/>
<feBlend mode="normal" in2="BackgroundImageFix" result="effect1_dropShadow_20_102"/>
<feBlend mode="normal" in="SourceGraphic" in2="effect1_dropShadow_20_102" result="shape"/>
</filter>
<filter id="filter9_d_20_102" x="539.291" y="274.293" width="27.3376" height="26.8337" filterUnits="userSpaceOnUse" color-interpolation-filters="sRGB">
<feFlood flood-opacity="0" result="BackgroundImageFix"/>
<feColorMatrix in="SourceAlpha" type="matrix" values="0 0 0 0 0 0 0 0 0 0 0 0 0 0 0 0 0 0 127 0" result="hardAlpha"/>
<feOffset/>
<feGaussianBlur stdDeviation="2"/>
<feComposite in2="hardAlpha" operator="out"/>
<feColorMatrix type="matrix" values="0 0 0 0 1 0 0 0 0 1 0 0 0 0 1 0 0 0 1 0"/>
<feBlend mode="normal" in2="BackgroundImageFix" result="effect1_dropShadow_20_102"/>
<feBlend mode="normal" in="SourceGraphic" in2="effect1_dropShadow_20_102" result="shape"/>
</filter>
<filter id="filter10_d_20_102" x="543.295" y="154" width="26.8337" height="27.3376" filterUnits="userSpaceOnUse" color-interpolation-filters="sRGB">
<feFlood flood-opacity="0" result="BackgroundImageFix"/>
<feColorMatrix in="SourceAlpha" type="matrix" values="0 0 0 0 0 0 0 0 0 0 0 0 0 0 0 0 0 0 127 0" result="hardAlpha"/>
<feOffset/>
<feGaussianBlur stdDeviation="2"/>
<feComposite in2="hardAlpha" operator="out"/>
<feColorMatrix type="matrix" values="0 0 0 0 1 0 0 0 0 1 0 0 0 0 1 0 0 0 1 0"/>
<feBlend mode="normal" in2="BackgroundImageFix" result="effect1_dropShadow_20_102"/>
<feBlend mode="normal" in="SourceGraphic" in2="effect1_dropShadow_20_102" result="shape"/>
</filter>
<filter id="filter11_d_20_102" x="360.295" y="22" width="26.8337" height="27.3376" filterUnits="userSpaceOnUse" color-interpolation-filters="sRGB">
<feFlood flood-opacity="0" result="BackgroundImageFix"/>
<feColorMatrix in="SourceAlpha" type="matrix" values="0 0 0 0 0 0 0 0 0 0 0 0 0 0 0 0 0 0 127 0" result="hardAlpha"/>
<feOffset/>
<feGaussianBlur stdDeviation="2"/>
<feComposite in2="hardAlpha" operator="out"/>
<feColorMatrix type="matrix" values="0 0 0 0 1 0 0 0 0 1 0 0 0 0 1 0 0 0 1 0"/>
<feBlend mode="normal" in2="BackgroundImageFix" result="effect1_dropShadow_20_102"/>
<feBlend mode="normal" in="SourceGraphic" in2="effect1_dropShadow_20_102" result="shape"/>
</filter>
<filter id="filter12_d_20_102" x="528.568" y="437.092" width="16" height="49.1222" filterUnits="userSpaceOnUse" color-interpolation-filters="sRGB">
<feFlood flood-opacity="0" result="BackgroundImageFix"/>
<feColorMatrix in="SourceAlpha" type="matrix" values="0 0 0 0 0 0 0 0 0 0 0 0 0 0 0 0 0 0 127 0" result="hardAlpha"/>
<feOffset/>
<feGaussianBlur stdDeviation="2"/>
<feComposite in2="hardAlpha" operator="out"/>
<feColorMatrix type="matrix" values="0 0 0 0 1 0 0 0 0 1 0 0 0 0 1 0 0 0 1 0"/>
<feBlend mode="normal" in2="BackgroundImageFix" result="effect1_dropShadow_20_102"/>
<feBlend mode="normal" in="SourceGraphic" in2="effect1_dropShadow_20_102" result="shape"/>
</filter>
</defs>
</svg>
